<?xml version="1.0" encoding="utf-8"?>
<!-- Generator: Adobe Illustrator 16.0.0, SVG Export Plug-In . SVG Version: 6.00 Build 0)  -->
<!DOCTYPE svg PUBLIC "-//W3C//DTD SVG 1.1//EN" "http://www.w3.org/Graphics/SVG/1.1/DTD/svg11.dtd">
<svg version="1.1" id="图层_1" xmlns="http://www.w3.org/2000/svg" xmlns:xlink="http://www.w3.org/1999/xlink" x="0px" y="0px"
	 width="960px" height="560px" viewBox="0 0 960 560" enable-background="new 0 0 960 560" xml:space="preserve">
<g>
	<rect fill="#727272" width="960" height="560"/>
	<text transform="matrix(0.8291 0.5591 -0.5591 0.8291 -48.2065 -756.1807)"><tspan x="0" y="0" fill="#6E6E6E" font-family="'YentiEG-Ultra-GB'" font-size="60">Davies Davies Davies Davies Davies Davies Davies Davies Davies Davies</tspan><tspan x="0" y="72" fill="#6E6E6E" font-family="'YentiEG-Ultra-GB'" font-size="60">Davies Davies Davies Davies Davies Davies Davies Davies Davies Davies</tspan><tspan x="0" y="144" fill="#6E6E6E" font-family="'YentiEG-Ultra-GB'" font-size="60">Davies Davies Davies Davies Davies Davies Davies Davies Davies Davies</tspan><tspan x="0" y="216" fill="#6E6E6E" font-family="'YentiEG-Ultra-GB'" font-size="60">Davies Davies Davies Davies Davies Davies Davies Davies Davies Davies</tspan><tspan x="0" y="288" fill="#6E6E6E" font-family="'YentiEG-Ultra-GB'" font-size="60">Davies Davies Davies Davies Davies Davies Davies Davies Davies Davies</tspan><tspan x="0" y="360" fill="#6E6E6E" font-family="'YentiEG-Ultra-GB'" font-size="60">Davies Davies Davies Davies Davies Davies Davies Davies Davies Davies</tspan><tspan x="0" y="432" fill="#6E6E6E" font-family="'YentiEG-Ultra-GB'" font-size="60">Davies Davies Davies Davies Davies Davies Davies Davies Davies Davies</tspan><tspan x="0.001" y="504" fill="#6E6E6E" font-family="'YentiEG-Ultra-GB'" font-size="60">Davies Davies Davies Davies Davies Davies Davies Davies Davies Davies</tspan><tspan x="0" y="576" fill="#6E6E6E" font-family="'YentiEG-Ultra-GB'" font-size="60">Davies Davies Davies Davies Davies Davies Davies Davies Davies Davies</tspan><tspan x="0" y="648" fill="#6E6E6E" font-family="'YentiEG-Ultra-GB'" font-size="60">Davies Davies Davies Davies Davies Davies Davies Davies Davies Davies</tspan><tspan x="0" y="720" fill="#6E6E6E" font-family="'YentiEG-Ultra-GB'" font-size="60">Davies Davies Davies Davies Davies Davies Davies Davies Davies Davies</tspan><tspan x="0.001" y="792.001" fill="#6E6E6E" font-family="'YentiEG-Ultra-GB'" font-size="60">Davies Davies Davies Davies Davies Davies Davies Davies Davies Davies</tspan><tspan x="0" y="864" fill="#6E6E6E" font-family="'YentiEG-Ultra-GB'" font-size="60">Davies Davies Davies Davies Davies Davies Davies Davies Davies Davies</tspan><tspan x="0" y="936" fill="#6E6E6E" font-family="'YentiEG-Ultra-GB'" font-size="60">Davies Davies Davies Davies Davies Davies Davies Davies Davies Davies</tspan><tspan x="0.001" y="1008.001" fill="#6E6E6E" font-family="'YentiEG-Ultra-GB'" font-size="60">Davies Davies Davies Davies Davies Davies Davies Davies Davies Davies</tspan><tspan x="0.001" y="1080" fill="#6E6E6E" font-family="'YentiEG-Ultra-GB'" font-size="60">Davies Davies Davies Davies Davies Davies Davies Davies Davies Davies</tspan><tspan x="0" y="1152" fill="#6E6E6E" font-family="'YentiEG-Ultra-GB'" font-size="60">Davies Davies Davies Davies Davies Davies Davies Davies Davies Davies</tspan><tspan x="0" y="1224.001" fill="#6E6E6E" font-family="'YentiEG-Ultra-GB'" font-size="60">  </tspan></text>
</g>
<g>
	<g>
		<g>
			<path fill="#515151" d="M397.333,415.059c0,0,0.754-0.363,2.279-0.922c1.529-0.537,3.817-1.326,6.866-2.082
				c6.081-1.599,15.132-3.327,26.716-4.855c11.581-1.57,25.679-3.147,41.893-4.562c8.111-0.63,16.749-1.256,25.871-1.709
				c9.123-0.396,18.726-0.801,28.776-0.833c10.063-0.009,20.518,0.485,31.512,1.781c2.759,0.351,5.547,0.711,8.477,1.334
				c1.48,0.315,2.966,0.648,4.701,1.301c0.887,0.37,1.805,0.687,3.149,1.766c0.337,0.288,0.706,0.636,1.096,1.163
				c0.382,0.519,0.784,1.235,0.998,2.138c0.101,0.553,0.167,0.704,0.14,1.623c0.031-0.222-0.057,0.8-0.221,1.266
				c-0.265,0.87-0.634,1.45-0.955,1.894c-0.65,0.853-1.192,1.278-1.67,1.652c-0.482,0.365-0.913,0.638-1.325,0.881
				c-0.82,0.479-1.573,0.846-2.312,1.18c-1.472,0.662-2.882,1.191-4.292,1.688c-2.816,0.974-5.592,1.848-8.394,2.67
				c-11.186,3.249-22.652,5.934-34.448,8.347c-11.777,2.456-23.805,4.861-36.035,7.244c-12.225,2.408-24.637,4.874-37.128,7.575
				c-6.236,1.386-12.493,2.829-18.725,4.396c-6.207,1.598-12.51,3.147-18.321,5.572c-1.449,0.587-2.868,1.214-4.192,1.878
				c-1.297,0.657-2.602,1.387-3.348,1.997c-0.177,0.139-0.315,0.268-0.343,0.311c-0.034,0.033,0.063,0.012,0.294-0.438
				c0.106-0.223,0.234-0.581,0.276-1.047c0.017-0.408,0.011-0.488,0.007-0.546c-0.052-0.508-0.121-0.686-0.193-0.911
				c-0.344-0.901-0.742-1.162-0.809-1.241c-0.178-0.125,0.272,0.143,0.776,0.293c0.521,0.178,1.171,0.346,1.848,0.495
				c2.763,0.597,5.954,0.931,9.117,1.188c3.184,0.251,6.426,0.411,9.684,0.528c13.054,0.439,26.332,0.327,39.607,0.242
				c13.284-0.089,26.601-0.224,39.908-0.167c13.32,0.048,26.586,0.332,39.983,1.206c3.354,0.232,6.723,0.506,10.135,0.926
				c3.418,0.446,6.852,0.986,10.51,1.974c1.836,0.532,3.719,1.145,5.847,2.232c1.065,0.571,2.208,1.256,3.456,2.381
				c0.618,0.564,1.271,1.262,1.881,2.164c0.607,0.89,1.166,2.026,1.486,3.298c0.157,0.634,0.262,1.294,0.292,1.942
				c0.021,0.328,0.016,0.644,0.006,0.963c-0.077,1.033-0.041,0.459-0.067,0.768c-0.008,0.063-0.014,0.172-0.097,0.643
				c-0.066,0.366-0.148,0.732-0.246,1.091c-0.171,0.555-0.343,1.047-0.554,1.506c-0.845,1.846-1.928,3.103-2.918,4.076
				c-2.009,1.904-3.856,2.953-5.617,3.883c-3.52,1.791-6.812,2.907-10.082,3.923c-3.263,0.994-6.477,1.814-9.667,2.553
				c-6.381,1.467-12.666,2.644-18.9,3.673c-24.9,4.071-48.9,6.488-71.423,9.557c-5.621,0.771-11.146,1.576-16.509,2.508
				c-2.68,0.466-5.318,0.966-7.881,1.524c-2.551,0.562-5.063,1.185-7.278,1.933c-1.092,0.366-2.144,0.795-2.809,1.166
				c-0.323,0.166-0.539,0.359-0.421,0.229c0.017-0.028,0.105-0.118,0.156-0.215c0.099-0.138,0.161-0.269,0.274-0.524
				c0.072-0.206,0.188-0.551,0.209-0.867c0.024-0.171,0.029-0.346,0.014-0.517c-0.09-0.921,0.058,0.118-0.137-0.933
				c-0.218-0.69-0.249-0.674-0.383-0.932c-0.074-0.14-0.184-0.287-0.242-0.363c-0.128-0.164-0.208-0.23-0.238-0.255
				c-0.066-0.048,0.001,0.029,0.125,0.12c0.237,0.188,0.666,0.449,1.111,0.695c0.915,0.504,1.997,0.999,3.094,1.466
				c4.453,1.881,9.266,3.356,13.922,4.826c4.686,1.438,9.341,2.718,13.915,3.885c4.572,1.18,9.065,2.259,13.466,3.212
				c8.793,1.933,17.218,3.497,25.156,4.248c3.957,0.381,7.829,0.487,11.389,0.123c1.746-0.195,3.511-0.557,4.657-1.252
				c1.108-0.825,2.113-2.117,2.363-3.424c0.298-1.312-0.046-2.679-0.809-3.816c-0.758-1.142-1.849-2.078-3.061-2.712
				c-2.442-1.299-5.206-1.441-7.544-0.808c-0.591,0.155-1.154,0.381-1.701,0.625c-0.092,0.057-0.63,0.317-0.773,0.429
				c-0.169,0.135-0.347,0.222-0.534,0.409c-0.765,0.638-1.234,1.475-1.486,2.405c-0.26,0.927-0.269,1.952-0.086,2.944
				c0.161,0.998,0.483,1.975,0.926,2.872c0.872,1.806,2.081,3.348,3.385,4.569c1.285,1.25,2.649,2.21,3.93,2.984
				c2.57,1.564,4.838,2.31,6.352,2.823c0.761,0.263,1.357,0.391,1.752,0.512c0.397,0.113,0.6,0.171,0.6,0.171
				s-0.21-0.001-0.622-0.004c-0.414,0-1.032-0.009-1.847-0.086c-0.818-0.051-1.833-0.178-3.022-0.442
				c-1.194-0.243-2.575-0.618-4.078-1.238c-1.508-0.61-3.136-1.481-4.768-2.719c-1.616-1.247-3.257-2.863-4.54-5.041
				c-1.242-2.147-2.257-4.988-1.546-8.217c0.334-1.591,1.237-3.188,2.567-4.351c0.303-0.3,0.718-0.578,1.116-0.85
				c0.435-0.277,0.538-0.315,1.064-0.6c0.745-0.333,1.521-0.631,2.339-0.843c3.262-0.887,7.069-0.418,10.205,1.541
				c1.565,0.969,2.998,2.292,4.014,4.015c1.007,1.706,1.502,3.93,1.02,6.058c-0.492,2.14-1.752,3.903-3.495,5.305
				c-1.934,1.312-3.917,1.722-5.884,2.106c-3.947,0.688-7.959,0.716-12.088,0.729c-4.128-0.019-8.363-0.25-12.711-0.575
				c-4.347-0.331-8.807-0.765-13.366-1.35c-9.121-1.169-18.646-2.772-28.547-5.018c-2.479-0.557-4.979-1.172-7.501-1.883
				c-2.527-0.707-5.074-1.469-7.698-2.414c-1.317-0.48-2.644-0.992-4.065-1.671c-0.719-0.35-1.445-0.717-2.293-1.273
				c-0.421-0.277-0.878-0.601-1.423-1.102c-0.27-0.25-0.574-0.56-0.903-0.984c-0.161-0.206-0.354-0.497-0.516-0.774
				c-0.203-0.408-0.322-0.533-0.58-1.386c-0.321-1.252-0.233-1.714-0.189-2.429c0.076-0.639,0.248-1.316,0.466-1.82
				c0.224-0.57,0.471-0.978,0.742-1.398c0.25-0.359,0.533-0.722,0.782-0.986c1.031-1.097,1.922-1.664,2.745-2.172
				c1.642-0.969,3.084-1.548,4.52-2.09c2.852-1.052,5.597-1.798,8.362-2.494c2.76-0.685,5.52-1.288,8.295-1.854
				c5.548-1.127,11.155-2.107,16.832-3.051c11.351-1.879,22.98-3.593,34.823-5.412c11.838-1.808,23.91-3.641,36.008-5.907
				c6.041-1.143,12.105-2.342,18.042-3.814c2.967-0.733,5.9-1.535,8.722-2.442c2.803-0.903,5.562-1.942,7.742-3.108
				c1.072-0.559,1.987-1.222,2.298-1.555c0.155-0.15,0.088-0.178-0.091,0.198c-0.037,0.097-0.096,0.198-0.134,0.374
				c-0.052,0.162-0.089,0.332-0.109,0.502c-0.028,0.275-0.012,0.186-0.001,0.047c-0.007,0.108,0.057-0.666-0.007,0.166
				c-0.009,0.118-0.002,0.231,0.001,0.358c0.016,0.245,0.049,0.507,0.113,0.749c0.119,0.489,0.332,0.884,0.481,1.108
				c0.159,0.233,0.267,0.327,0.286,0.35c0.05,0.04-0.187-0.145-0.549-0.331c-0.743-0.407-1.937-0.866-3.21-1.246
				c-2.578-0.808-5.562-1.423-8.586-1.936c-3.037-0.525-6.165-0.958-9.329-1.313c-3.166-0.342-6.37-0.624-9.593-0.869
				c-3.226-0.221-6.471-0.4-9.728-0.556c-6.516-0.31-13.08-0.52-19.67-0.682c-13.183-0.323-26.463-0.451-39.774-0.637
				c-13.318-0.214-26.646-0.395-40.059-1.145c-3.357-0.197-6.721-0.437-10.119-0.781c-3.412-0.363-6.799-0.76-10.467-1.629
				c-0.926-0.229-1.871-0.487-2.9-0.861c-1.04-0.407-2.129-0.791-3.609-1.93c-0.708-0.585-1.685-1.477-2.311-3.157
				c-0.143-0.418-0.26-0.797-0.339-1.508c-0.032-0.261-0.042-0.548-0.009-1.161c0.075-0.876,0.322-1.634,0.598-2.229
				c0.573-1.201,1.203-1.866,1.747-2.414c0.554-0.537,1.059-0.923,1.546-1.267c1.934-1.298,3.607-1.996,5.303-2.666
				c1.68-0.65,3.325-1.19,4.958-1.703c6.54-1.922,12.836-3.787,19.185-5.441c6.335-1.655,12.645-3.17,18.92-4.625
				c12.537-2.966,24.936-5.696,37.122-8.371c12.173-2.645,24.143-5.245,35.858-7.79c5.832-1.292,11.601-2.57,17.3-3.833
				c5.681-1.272,11.294-2.497,16.715-3.9c2.703-0.703,5.378-1.423,7.89-2.284c1.252-0.424,2.477-0.872,3.561-1.346
				c0.539-0.234,1.043-0.479,1.429-0.698c0.189-0.107,0.346-0.21,0.42-0.264c0.075-0.044,0.062-0.081-0.169,0.217
				c-0.117,0.165-0.311,0.439-0.475,0.978c-0.113,0.3-0.175,1.149-0.138,0.755c-0.023,0.745,0.021,0.724,0.086,1.106
				c0.133,0.565,0.372,0.97,0.549,1.21c0.186,0.247,0.304,0.352,0.378,0.418c0.271,0.198-0.094-0.051-0.487-0.175
				c-0.848-0.312-2.045-0.603-3.241-0.828c-2.434-0.432-5.033-0.733-7.621-0.931c-5.195-0.396-10.408-0.55-15.527-0.646
				c-5.136-0.093-10.177-0.183-15.113-0.271c-9.896-0.203-19.41-0.366-28.462-0.327c-9.054-0.014-17.651,0.007-25.729,0.146
				c-16.163,0.132-30.258,0.591-41.842,1.24c-11.581,0.688-20.665,1.406-26.844,2.082
				C400.588,414.288,397.333,415.059,397.333,415.059z"/>
		</g>
		<g>
			<path fill="#515151" d="M422.458,393.045c0,0-2.326-3.043-6.552-8.85c-2.129-2.893-4.687-6.508-7.682-10.77
				c-1.488-2.138-3.087-4.436-4.793-6.888c-1.667-2.479-3.438-5.112-5.309-7.896c-7.473-11.148-16.183-24.938-25.585-41.149
				c-9.266-16.279-19.283-34.973-28.53-56.25c-4.646-10.625-9.149-21.877-13.137-33.806c-4.019-11.916-7.534-24.51-10.143-37.761
				c-2.565-13.244-4.031-27.24-3.311-41.635c0.387-7.188,1.219-14.47,2.856-21.692c1.574-7.226,3.88-14.397,6.963-21.292
				c6.142-13.81,15.696-26.306,27.523-36.022c5.896-4.884,12.301-9.155,19.038-12.809c3.367-1.831,6.818-3.512,10.329-5.055
				c1.744-0.802,3.531-1.497,5.302-2.237c1.795-0.673,3.575-1.4,5.393-2.015c7.213-2.634,14.614-4.767,22.113-6.492
				c7.498-1.728,15.071-3.199,22.709-4.269c15.26-2.191,30.748-3.183,46.122-3.481c7.767-0.157,15.46-0.087,23.207,0.126
				c7.734,0.251,15.473,0.717,23.198,1.457c15.435,1.51,30.863,4.203,45.749,9.047c7.432,2.422,14.735,5.359,21.691,9.018
				c3.488,1.803,6.902,3.766,10.205,5.908c3.283,2.168,6.479,4.473,9.528,6.963c12.284,9.869,22.016,22.734,28.351,36.653
				c3.163,6.969,5.528,14.176,7.199,21.415c1.641,7.246,2.65,14.514,3.084,21.692c0.864,14.372-0.354,28.323-2.559,41.589
				c-4.47,26.579-12.95,50.47-21.974,71.764c-4.524,10.659-9.307,20.657-14.128,30.009c-4.813,9.357-9.642,18.081-14.338,26.178
				c-9.477,16.149-18.388,29.804-26.037,40.817c-7.638,11.022-13.953,19.447-18.335,25.129c-4.376,5.686-6.765,8.671-6.765,8.671
				s2.16-3.157,6.096-9.146c3.911-6.005,9.636-14.816,16.532-26.254c6.885-11.44,15.019-25.465,23.503-41.967
				c4.263-8.236,8.621-17.086,12.923-26.537c2.151-4.726,4.284-9.602,6.383-14.625c2.116-5.015,4.203-10.174,6.221-15.481
				c4.031-10.614,7.832-21.807,11.084-33.543c3.235-11.734,6.055-23.991,7.77-36.698c1.73-12.689,2.409-25.837,1.266-39
				c-0.536-6.581-1.603-13.146-3.207-19.598c-1.634-6.443-3.864-12.755-6.755-18.78c-2.907-6.015-6.493-11.723-10.716-16.985
				c-2.104-2.636-4.392-5.141-6.814-7.528c-2.411-2.399-4.953-4.691-7.629-6.852c-2.676-2.162-5.499-4.173-8.413-6.076
				c-2.891-1.939-5.898-3.748-9.006-5.42c-3.095-1.695-6.297-3.232-9.55-4.711c-3.249-1.486-6.576-2.853-9.97-4.101
				c-13.548-5.066-27.988-8.576-42.744-10.908c-7.38-1.181-14.85-2.043-22.363-2.632c-7.501-0.626-15.096-0.909-22.615-1.022
				c-15.193-0.206-30.299,0.378-45.242,2.138c-14.918,1.753-29.642,4.806-43.534,9.759c-13.835,5.006-26.864,12.02-37.444,21.52
				c-5.287,4.733-9.893,10.094-13.738,15.855c-3.833,5.776-6.856,11.979-9.124,18.377c-4.592,12.809-6.089,26.3-6.105,39.469
				c0.059,13.204,1.573,26.186,3.805,38.755c4.461,25.186,12.286,48.516,20.339,69.678c2.045,5.287,4.137,10.436,6.251,15.443
				c1.075,2.498,2.137,4.966,3.187,7.405c1.063,2.437,2.113,4.843,3.149,7.219c4.208,9.481,8.426,18.392,12.535,26.701
				c8.103,16.683,15.756,30.97,22.084,42.734c3.219,5.858,6.093,11.088,8.594,15.638c2.542,4.534,4.703,8.392,6.456,11.519
				C420.577,389.711,422.458,393.045,422.458,393.045z"/>
		</g>
	</g>
	<g>
		<g>
			<path fill="#515151" d="M385.348,207.675c0,0,0.141,0.07,0.413,0.206c0.259,0.146,0.678,0.383,1.134,0.507
				c0.893,0.332,2.362,0.712,3.94,0.559c1.597-0.145,3.317-0.769,5.192-2.035c1.875-1.259,3.89-3.181,5.972-5.572
				c0.54-0.556,1.033-1.245,1.564-1.886c0.263-0.326,0.528-0.655,0.796-0.988c0.251-0.356,0.504-0.716,0.759-1.079
				c0.511-0.74,1.025-1.43,1.56-2.24c0.526-0.81,1.061-1.633,1.603-2.466c2.145-3.371,4.42-6.931,6.611-10.664
				c1.09-1.868,2.195-3.76,3.241-5.674c1.036-1.904,2.045-3.875,2.779-5.686c0.175-0.446,0.339-0.875,0.454-1.237
				c0.122-0.348,0.168-0.688,0.157-0.55c0.019,0.112-0.083,0.361,0.261,1.283c0.042,0.091,0.099,0.22,0.179,0.373
				c0.076,0.141,0.163,0.277,0.258,0.404c0.205,0.3,0.49,0.593,0.793,0.834c0.311,0.254,0.678,0.445,0.969,0.572l0.24,0.089
				c0.422,0.092-0.601-0.097,1.01,0.217l-0.109-0.012l-0.109-0.012l-0.055-0.006c0.049,0.009,0.213,0.03,0.318,0.036
				c0.477,0.034,0.987-0.033,1.433-0.187l0.36-0.133c0.073-0.03,0.146-0.063,0.215-0.1c0.122-0.056,0.316-0.207,0.341-0.213
				c0.058-0.036,0.113-0.077,0.164-0.122c0.057-0.053,0.098-0.099,0.098-0.091c0.018-0.004,0.055-0.068,0.036-0.04
				c-0.165,0.169-0.702,1.076-1.089,1.944c-0.413,0.9-0.829,1.889-1.218,2.906c-1.551,4.101-2.813,8.558-3.901,12.88
				c-0.266,1.083-0.514,2.164-0.735,3.226l-0.151,0.748l-0.138,0.787c-0.077,0.448-0.156,1.017-0.229,1.526
				c-0.295,2.1-0.479,4.21-0.515,6.175c-0.002,0.961,0.009,1.934,0.114,2.721c0.016,0.217,0.045,0.399,0.08,0.56
				c0.034,0.153,0.05,0.383,0.091,0.465c0.033,0.092,0.061,0.271,0.078,0.301c0.007,0.006,0.008,0.015,0.005,0.027
				c-0.009-0.008,0.003,0.08-0.043-0.024c-0.038-0.063-0.09-0.118-0.152-0.159l-0.048-0.029l-0.025-0.012
				c0.333,0.255-0.488-0.364-0.382-0.286l0.162,0.116c0.089,0.062,0.257,0.189,0.281,0.197c-0.121-0.108-0.268-0.194-0.421-0.245
				c-0.067-0.025-0.176-0.044-0.211-0.051c-0.008-0.006-0.017-0.01-0.025-0.012c-0.018-0.003-0.038,0.001-0.056,0.015
				c0.033-0.008,0.063,0.009,0.132,0.017c0.337,0.01,1.062-0.163,1.775-0.46c1.457-0.569,3.013-1.515,4.447-2.488
				c1.457-0.975,2.831-2.042,4.152-3.082c2.634-2.098,4.978-4.191,7.025-6.097c2.055-1.904,3.8-3.644,5.206-5.129
				c1.405-1.484,2.497-2.7,3.221-3.558c0.737-0.863,1.131-1.323,1.131-1.323s-0.098,0.601-0.375,1.717
				c-0.292,1.108-0.802,2.72-1.668,4.687c-0.873,1.959-2.075,4.289-3.727,6.787c-1.656,2.494-3.736,5.173-6.345,7.837
				c-1.3,1.34-2.75,2.653-4.367,3.942c-1.65,1.265-3.395,2.534-5.65,3.613c-1.132,0.53-2.376,1.051-4.117,1.266
				c-0.945,0.064-1.788,0.148-3.261-0.322c-0.4-0.144-0.794-0.322-1.162-0.523l-0.384-0.235l-0.168-0.105
				c0.075,0.063-0.761-0.587-0.452-0.355l-0.09-0.087l-0.178-0.179c-0.235-0.242-0.462-0.499-0.674-0.763
				c-0.244-0.289-0.313-0.466-0.459-0.702l-0.37-0.682c-0.222-0.449-0.323-0.797-0.479-1.208c-0.162-0.419-0.212-0.73-0.314-1.1
				c-0.097-0.364-0.174-0.714-0.224-1.037c-0.262-1.358-0.345-2.585-0.423-3.833c-0.111-2.461-0.047-4.852,0.136-7.282
				c0.046-0.623,0.098-1.188,0.182-1.875l0.116-0.915l0.146-0.951c0.192-1.203,0.409-2.391,0.641-3.577
				c0.934-4.747,2.118-9.431,3.761-14.218c0.421-1.2,0.869-2.41,1.436-3.655c0.602-1.266,1.126-2.489,2.441-4.154
				c0.162-0.204,0.418-0.467,0.633-0.688c0.096-0.104,0.251-0.243,0.424-0.385c0.165-0.137,0.335-0.27,0.507-0.397
				c0.132-0.11,0.471-0.306,0.718-0.438l0.41-0.203c0.161-0.068,0.203-0.105,0.562-0.219c0.588-0.186,1.241-0.286,1.861-0.285
				c0.141-0.001,0.34,0.008,0.425,0.014l0.055,0.006l0.109,0.011l0.109,0.011c1.647,0.316,0.656,0.149,1.113,0.252l0.342,0.13
				c0.434,0.169,0.917,0.452,1.349,0.789c0.421,0.327,0.797,0.74,1.096,1.148c0.133,0.191,0.256,0.39,0.369,0.594
				c0.121,0.215,0.211,0.409,0.273,0.571c0.561,1.469,0.48,2.318,0.473,3.011c-0.095,1.306-0.334,2.108-0.557,2.873
				c-0.23,0.752-0.475,1.414-0.735,2.045c-1.04,2.486-2.176,4.606-3.331,6.694c-1.155,2.075-2.335,4.06-3.543,5.975
				c-2.413,3.827-4.793,7.449-7.172,10.815c-0.6,0.843-1.191,1.675-1.774,2.494c-0.585,0.812-1.259,1.658-1.87,2.462
				c-0.313,0.404-0.622,0.805-0.929,1.203c-0.336,0.386-0.669,0.768-1,1.146c-0.68,0.746-1.263,1.518-2.005,2.188
				c-2.726,2.789-5.85,5.03-9.2,6.218c-3.326,1.227-6.828,1.167-9.275,0.201c-1.234-0.451-2.21-1.096-2.957-1.714
				c-0.739-0.646-1.256-1.238-1.658-1.803c-0.42-0.556-0.568-0.953-0.7-1.225c-0.121-0.279-0.184-0.423-0.184-0.423L385.348,207.675
				z"/>
		</g>
		<g>
			<path fill="#515151" d="M467.8,180.872c0,0-0.315-0.079-0.925-0.231c-0.334-0.099-0.597-0.102-0.979-0.186
				c-0.36-0.068-0.849-0.124-1.357-0.179c-2.053-0.211-5.14-0.16-8.544,1.393c-3.384,1.489-7.048,4.659-9.31,9.586
				c-0.559,1.227-1.024,2.554-1.375,3.962c-0.102,0.348-0.159,0.712-0.241,1.071l-0.058,0.271l-0.015,0.068
				c0.021-0.116-0.001,0.013,0,0.008l-0.026,0.158l-0.048,0.304l-0.021,0.192c-0.069,0.581-0.086,1.271-0.041,1.911
				c0.083,1.297,0.428,2.59,0.991,3.538c0.572,0.967,1.249,1.519,2.164,1.817c0.467,0.145,1.018,0.229,1.653,0.223
				c0.174-0.002-0.176,0.006-0.103,0.002l0.092-0.004l0.186-0.01l0.372-0.019c0.135-0.023,0.163-0.044,0.252-0.048
				c0.258-0.054,0.549-0.133,0.837-0.229c1.17-0.412,2.492-1.311,3.748-2.497c2.534-2.39,4.824-5.762,6.802-9.401
				c0.496-0.914,0.973-1.851,1.43-2.805c0.463-0.958,0.866-1.893,1.373-3.011c0.968-2.131,1.975-4.237,3.002-6.354
				c2.045-4.234,4.2-8.489,6.375-12.803c2.161-4.315,4.354-8.702,6.368-13.127c0.986-2.19,1.981-4.474,2.628-6.489
				c0.153-0.48,0.274-0.97,0.306-1.191c0.026-0.065-0.028-0.176,0.037,0.387c0.076,0.291,0.105,0.902,0.962,1.856
				c0.208,0.214,0.471,0.433,0.755,0.602c-0.301-0.006,1.464,0.577,1.143,0.469c-0.226,0.111,2.056,0.127,1.928-0.015
				c0.392-0.107,0.611-0.211,0.757-0.284c0.607-0.337,0.587-0.401,0.655-0.443c0.037-0.039-0.005,0.007-0.039,0.046
				c-0.084,0.098-0.22,0.274-0.356,0.466c-0.276,0.391-0.58,0.857-0.881,1.338c-1.208,1.955-2.364,4.154-3.459,6.364
				c-1.095,2.221-2.137,4.495-3.126,6.797c-1.976,4.606-3.754,9.33-5.234,14.101c-1.496,4.764-2.603,9.617-3.3,14.331
				c-0.336,2.351-0.618,4.681-0.57,6.887c0.024,2.203,0.379,4.286,1.277,5.856c0.224,0.394,0.491,0.748,0.791,1.071l0.114,0.12
				c0.133,0.106-0.121-0.078-0.057-0.03l0.091,0.077l0.184,0.152l0.084,0.07l0.011,0.004c0.028,0.01-0.015,0.024,0.061,0.062
				c0.065,0.033,0.121,0.08,0.193,0.115c0.569,0.286,1.534,0.385,2.553,0.246c2.066-0.268,4.297-1.181,6.32-2.343
				c4.104-2.356,7.436-5.927,10.339-9.437c1.466-1.754,2.83-3.535,4.063-5.3c1.211-1.77,2.222-3.616,2.783-5.324
				c0.273-0.846,0.413-1.644,0.418-2.272c-0.01-0.628-0.141-1.014-0.312-1.271c-0.105-0.128-0.183-0.262-0.357-0.391l-0.027-0.026
				c0.063,0.053-0.177-0.156,0.134,0.111l-0.168-0.13l-0.154-0.117c0.024,0.032,0.053,0.06,0.084,0.084
				c0.028,0.024,0.069,0.047,0.094,0.061l-0.005,0.009c0.004-0.001-0.002,0.001-0.013,0.005c-0.045,0.002-0.421-0.048-0.956,0.118
				c-1.083,0.294-2.428,1.207-3.433,2.339c-1.029,1.143-1.805,2.522-2.283,3.967c-0.068,0.178-0.109,0.366-0.166,0.547l-0.041,0.136
				c0.041-0.142-0.002,0.015,0.001,0.008l-0.024,0.095l-0.099,0.376c-0.081,0.288-0.086,0.389-0.132,0.58
				c-0.038,0.156-0.071,0.379-0.108,0.574c-0.138,0.803-0.218,1.619-0.244,2.43c-0.046,1.621,0.108,3.22,0.446,4.682
				c0.342,1.462,0.882,2.785,1.564,3.843c0.669,1.07,1.467,1.867,2.354,2.417c0.441,0.28,0.919,0.485,1.425,0.643l0.188,0.062
				c0.056,0.015-0.346-0.075-0.138-0.028l0.079,0.017l0.156,0.034l0.624,0.139c0.091,0.019,0.235,0.059,0.281,0.06l0.15,0.013
				c0.1,0.011,0.198,0.026,0.298,0.045c1.037,0.126,2.222,0.018,3.364-0.279c2.322-0.586,4.582-1.896,6.663-3.2
				c2.078-1.346,3.976-2.793,5.708-4.131c3.444-2.716,6.242-5.008,8.266-6.47c2.021-1.479,3.242-2.116,3.242-2.116l0.158,0.154
				c0,0-0.599,1.187-1.72,3.413c-1.16,2.188-2.879,5.398-5.768,9.146c-1.45,1.871-3.203,3.872-5.464,5.832
				c-2.267,1.942-5.049,3.9-8.788,5.127c-1.871,0.603-3.955,0.989-6.262,0.879l-0.955-0.08l-0.479-0.05
				c-0.165-0.018-0.226-0.035-0.344-0.053l-0.629-0.11l-0.158-0.029l-0.079-0.014l-0.293-0.066l-0.431-0.116
				c-1.147-0.31-2.303-0.761-3.385-1.377c-2.179-1.217-4.039-3.021-5.403-5.052c-1.35-2.051-2.241-4.303-2.802-6.607
				c-0.568-2.308-0.771-4.688-0.647-7.096c0.06-1.204,0.199-2.416,0.43-3.633c0.063-0.309,0.111-0.594,0.197-0.939
				c0.075-0.311,0.168-0.718,0.232-0.927l0.105-0.375l0.079-0.273l0.078-0.235c0.109-0.312,0.203-0.628,0.33-0.936
				c0.943-2.482,2.39-4.831,4.338-6.817c1.97-1.96,4.357-3.674,7.607-4.458c1.61-0.365,3.571-0.486,5.649,0.294
				c0.257,0.094,0.511,0.205,0.763,0.338l0.374,0.197c0.145,0.085,0.304,0.188,0.451,0.286l0.44,0.313l0.177,0.147l0.162,0.137
				c0.364,0.312,0.173,0.157,0.286,0.259l0.123,0.124c0.667,0.634,1.25,1.442,1.722,2.292c0.944,1.744,1.229,3.692,1.137,5.364
				c-0.103,1.678-0.502,3.162-1.004,4.513c-1.033,2.683-2.462,4.926-4.02,7.019c-1.554,2.096-3.34,3.962-5.271,5.662
				c-1.947,1.685-4.038,3.198-6.201,4.609c-2.157,1.421-4.383,2.746-6.692,4.014c-2.329,1.24-4.726,2.46-7.632,3.109
				c-1.449,0.3-3.094,0.491-4.947-0.012c-0.454-0.136-0.909-0.29-1.474-0.607l-0.308-0.176l-0.204-0.124l-0.102-0.062
				c-0.003,0.004-0.315-0.234-0.243-0.179l-0.249-0.188c-0.661-0.507-1.258-1.096-1.792-1.723c-2.156-2.547-3.144-5.592-3.686-8.449
				c-0.513-2.891-0.59-5.728-0.391-8.493c0.196-2.766,0.662-5.458,1.244-8.097c0.579-2.641,1.269-5.234,2.033-7.794
				c1.533-5.118,3.354-10.101,5.389-14.979c1.019-2.438,2.094-4.849,3.241-7.234c1.158-2.391,2.35-4.736,3.791-7.126
				c0.365-0.603,0.75-1.206,1.211-1.848c0.233-0.324,0.479-0.655,0.808-1.039c0.175-0.2,0.342-0.393,0.608-0.65
				c0.298-0.258,0.517-0.536,1.405-1.021c0.216-0.11,0.508-0.246,0.976-0.372c-0.054-0.167,2.312-0.155,2.162-0.033
				c-0.241-0.098,1.592,0.526,1.362,0.556c0.348,0.214,0.677,0.478,0.938,0.751c1.08,1.183,1.204,2.114,1.335,2.713
				c0.162,1.19,0.039,1.717-0.023,2.275c-0.165,1.027-0.387,1.757-0.609,2.479c-0.91,2.784-1.958,5.096-3.017,7.451
				c-2.131,4.648-4.357,9.071-6.547,13.416c-2.194,4.31-4.351,8.549-6.462,12.698c-1.042,2.063-2.058,4.104-3.007,6.108
				c-0.45,0.95-0.962,2.088-1.497,3.148c-0.532,1.067-1.087,2.115-1.666,3.144c-2.338,4.102-4.954,7.986-8.551,11.307
				c-1.811,1.633-3.917,3.162-6.575,4.073c-0.67,0.22-1.35,0.395-2.076,0.522c-0.406,0.058-0.872,0.114-1.23,0.14l-0.938,0.026
				c-1.342-0.021-2.752-0.233-4.121-0.713c-1.369-0.473-2.668-1.251-3.742-2.201c-1.067-0.96-1.92-2.075-2.537-3.218
				c-1.25-2.3-1.718-4.643-1.822-6.861c-0.046-1.124,0-2.185,0.16-3.309l0.067-0.447l0.061-0.329l0.078-0.395l0.08-0.352
				c0.111-0.467,0.2-0.934,0.335-1.39c0.486-1.832,1.127-3.576,1.899-5.203c3.059-6.57,8.414-10.969,13.431-12.726
				c2.51-0.905,4.903-1.236,6.954-1.239c2.057-0.014,3.776,0.307,5.117,0.654c0.676,0.192,1.237,0.361,1.761,0.556
				c0.5,0.19,0.996,0.369,1.243,0.503c0.567,0.272,0.86,0.413,0.86,0.413L467.8,180.872z"/>
		</g>
		<g>
			<path fill="#515151" d="M548.474,179.175c0,0-0.29,0.048-0.847,0.115c-0.577,0.061-1.238,0.188-2.221,0.351
				c-1.907,0.345-4.588,0.934-7.54,2.333c-2.961,1.332-6.184,3.825-8.385,7.777c-1.095,1.983-1.947,4.223-2.365,6.873
				c-0.157,1.075-0.198,2.259-0.011,3.292c0.17,1.043,0.594,1.869,1.17,2.551c0.605,0.657,1.447,1.169,2.515,1.437
				c1.063,0.26,2.309,0.266,3.53-0.029c1.218-0.294,2.411-0.866,3.38-1.698c0.49-0.409,0.935-0.875,1.301-1.403
				c0.202-0.251,0.353-0.54,0.521-0.817c0.191-0.334,0.365-0.703,0.564-1.112c1.543-3.271,3.026-6.913,4.434-10.573
				c0.7-1.837,1.385-3.707,1.998-5.567c0.301-0.926,0.597-1.863,0.822-2.713c0.108-0.399,0.203-0.871,0.213-0.967
				c0.005-0.002-0.008,0,0.014,0.254c0.018,0.107,0.027,0.335,0.202,0.776c0.155,0.414,0.793,1.603,2.35,1.961
				c1.479,0.16,0.148,0.042,0.802,0.079c0.409,0.031,1.168-0.243,1.22-0.284c0.138-0.057,0.323-0.172,0.397-0.223
				c0.074-0.047,0.146-0.101,0.212-0.158c0.17-0.14,0.216-0.217,0.214-0.211c0.007-0.015-0.08,0.102-0.161,0.233
				c-0.085,0.136-0.182,0.311-0.276,0.487c-0.193,0.366-0.388,0.777-0.576,1.203c-0.377,0.854-0.73,1.769-1.059,2.7
				c-0.656,1.867-1.222,3.813-1.673,5.773c-0.448,1.959-0.788,3.949-0.924,5.875c-0.064,0.959-0.079,1.904-0.01,2.777
				c0.035,0.436,0.089,0.852,0.154,1.235c0.074,0.421,0.134,0.61,0.323,1.222c0.205,0.616,0.536,1.327,0.861,1.736
				c0.335,0.44,0.729,0.756,1.389,1.022c0.652,0.262,1.548,0.406,2.524,0.483c0.292,0.074,0.952-0.088,1.67-0.53
				c1.446-0.885,2.991-2.387,4.216-4.075c1.232-1.709,2.326-3.573,3.374-5.467c2.065-3.814,3.829-7.836,5.481-11.881
				c1.671-4.04,3.228-8.12,4.682-12.2c1.45-4.081,2.789-8.168,3.983-12.225c0.596-2.027,1.156-4.049,1.648-6.046
				c0.246-0.998,0.475-1.99,0.669-2.96c0.188-0.947,0.359-1.97,0.387-2.65c0.012-0.133-0.016-0.312,0.009-0.095
				c0.006,0.043,0.015,0.086,0.026,0.128c0.017,0.072,0.045,0.172,0.078,0.252c0.036,0.101,0.129,0.308,0.219,0.44
				c0.171,0.262,0.305,0.442,0.672,0.737c0.452,0.333,1.373,0.624,0.887,0.455c-0.18-0.056,0.229,0.092,0.59,0.107
				c0.428,0.009,0.446-0.009,0.643-0.037c0.181-0.04,0.244-0.054,0.358-0.094c0.366-0.131,0.479-0.246,0.522-0.266
				c0.053-0.042,0.04-0.029,0.025-0.012c-0.045,0.049-0.146,0.173-0.246,0.313c-0.426,0.585-0.905,1.422-1.34,2.248
				c-0.88,1.681-1.684,3.479-2.438,5.271c-1.51,3.595-2.808,7.23-4.005,10.78c-2.348,7.116-4.216,13.98-5.326,20.301
				c-0.565,3.151-0.935,6.18-0.963,8.931c-0.018,1.372,0.073,2.668,0.254,3.804c0.183,1.129,0.517,2.09,0.871,2.62
				c0.085,0.137,0.171,0.24,0.251,0.327c0.02,0.021,0.038,0.046,0.059,0.062l0.029,0.028l0.015,0.015
				c0.092,0.076-0.114-0.089-0.071-0.056l0.388,0.306l0.185,0.144l0.101,0.061l0.195,0.133c0.188,0.095,0.357,0.22,0.552,0.299
				c0.747,0.369,1.567,0.59,2.429,0.68c1.725,0.199,3.521-0.115,5.15-0.494c3.281-0.79,6.013-1.813,7.924-2.473
				c0.977-0.344,1.725-0.608,2.229-0.786c0.517-0.18,0.799-0.263,0.799-0.264l1.211,1.465c0,0-0.559,1.106-2.096,2.77
				c-1.551,1.622-4.102,3.87-8.291,5.342c-2.091,0.709-4.62,1.199-7.58,0.945c-1.472-0.13-3.057-0.498-4.6-1.219
				c-0.391-0.165-0.76-0.391-1.142-0.596l-0.616-0.398l-0.308-0.208l-0.205-0.154l-0.393-0.299l-0.167-0.136l-0.078-0.068
				l-0.156-0.138c-0.106-0.092-0.201-0.188-0.299-0.285c-0.388-0.388-0.733-0.804-1.025-1.23c-1.176-1.722-1.688-3.495-2.023-5.188
				c-0.323-1.7-0.414-3.373-0.415-5.041c0.012-3.333,0.409-6.675,0.992-10.093c1.228-6.819,3.213-13.932,5.817-21.277
				c1.296-3.676,2.772-7.394,4.465-11.16c0.855-1.884,1.756-3.771,2.828-5.692c0.551-0.968,1.102-1.919,1.918-2.989
				c0.212-0.271,0.439-0.55,0.757-0.871c0.168-0.166,0.343-0.333,0.602-0.533c0.244-0.183,0.582-0.435,1.19-0.657
				c0.177-0.058,0.299-0.102,0.545-0.146c0.261-0.035,0.344-0.073,0.836-0.054c0.425,0.019,0.899,0.167,0.781,0.135
				c-0.422-0.156,0.558,0.162,1.063,0.536c0.422,0.329,0.589,0.57,0.801,0.88c0.118,0.191,0.244,0.454,0.303,0.615
				c0.053,0.143,0.103,0.304,0.137,0.439l0.064,0.319c0.105,0.732,0.063,1.077,0.048,1.463c-0.114,1.401-0.354,2.438-0.594,3.547
				c-0.245,1.086-0.515,2.144-0.801,3.196c-0.571,2.102-1.2,4.177-1.863,6.252c-1.328,4.147-2.793,8.286-4.372,12.42
				c-1.578,4.135-3.283,8.26-5.161,12.339c-1.905,4.068-3.968,8.09-6.272,12.025c-1.146,1.974-2.384,3.908-3.756,5.799
				c-1.398,1.878-2.699,3.874-4.872,5.574c-1.081,0.815-2.515,1.668-4.456,1.747c-1.228,0.059-2.56,0.073-4.035-0.259
				c-0.733-0.161-1.494-0.438-2.229-0.806c-0.719-0.4-1.432-0.88-2.007-1.464c-0.6-0.57-1.077-1.201-1.497-1.841
				c-0.183-0.325-0.369-0.638-0.538-0.982c-0.157-0.341-0.341-0.744-0.461-1.044c-0.17-0.422-0.479-1.264-0.614-1.918
				c-0.164-0.685-0.264-1.351-0.328-2c-0.13-1.299-0.131-2.535-0.077-3.742c0.119-2.408,0.469-4.694,0.928-6.927
				c0.464-2.232,1.043-4.402,1.744-6.547c0.354-1.073,0.736-2.137,1.184-3.216c0.226-0.541,0.467-1.084,0.749-1.651
				c0.308-0.584,0.564-1.127,1.196-1.947c0.159-0.199,0.387-0.465,0.752-0.777c0.118-0.097,0.241-0.188,0.367-0.275
				c0.128-0.089,0.374-0.229,0.567-0.318c0.107-0.076,0.934-0.355,1.405-0.346c0.715,0.026-0.548-0.089,0.994,0.079
				c1.688,0.389,2.409,1.695,2.613,2.226c0.22,0.563,0.255,0.919,0.282,1.156c0.047,0.513,0.021,0.775,0.006,1.031
				c-0.088,0.938-0.229,1.479-0.364,2.083c-0.276,1.155-0.592,2.185-0.923,3.207c-0.659,2.033-1.362,3.978-2.081,5.894
				c-1.457,3.836-2.913,7.484-4.611,11.138c-0.216,0.45-0.448,0.944-0.722,1.438c-0.31,0.542-0.614,1.084-0.988,1.582
				c-0.709,1.019-1.557,1.929-2.483,2.716c-1.853,1.588-4.031,2.67-6.295,3.25c-2.269,0.573-4.653,0.64-6.971,0.108
				c-1.158-0.265-2.291-0.712-3.355-1.292c-1.066-0.59-2.03-1.371-2.877-2.246c-1.66-1.795-2.687-4.032-3.075-6.132
				c-0.413-2.108-0.36-4.083-0.091-6.013c0.503-3.365,1.692-6.628,3.309-9.333c1.609-2.735,3.677-4.962,5.842-6.659
				c2.188-1.676,4.455-2.865,6.606-3.573c2.151-0.721,4.169-0.958,5.889-0.953c1.724-0.008,3.159,0.237,4.286,0.503
				c1.1,0.281,2.025,0.611,2.512,0.842c0.506,0.242,0.765,0.38,0.765,0.38L548.474,179.175z"/>
		</g>
		<circle fill="#515151" cx="426.868" cy="149.458" r="6.333"/>
	</g>
	<g>
		<g>
			<path fill="#515151" d="M508.098,379.629c0,0-0.184-3.213-0.409-8.841c-0.205-5.629-0.406-13.671-0.398-23.334
				c0.03-4.83,0.102-10.065,0.282-15.61c0.213-5.546,0.52-11.388,1.195-17.482c0.364-3.042,0.742-6.176,1.783-9.426
				c1.004-3.122,2.271-6.067,3.615-9.002c1.354-2.925,2.806-5.812,4.314-8.677c1.531-2.852,3.13-5.674,4.763-8.473
				c3.274-5.591,6.672-11.1,10.179-16.414c3.532-5.298,7.102-10.446,10.688-15.336c3.629-4.859,7.218-9.497,10.76-13.789
				c3.574-4.266,7.038-8.235,10.394-11.763c3.379-3.506,6.55-6.66,9.563-9.253c2.99-2.614,5.747-4.744,8.16-6.307
				c2.402-1.58,4.45-2.596,5.905-3.152c0.733-0.27,1.294-0.468,1.689-0.565c0.389-0.108,0.589-0.164,0.589-0.164l0.303,0.97
				c0,0-0.179,0.078-0.524,0.229c-0.348,0.137-0.847,0.398-1.489,0.74c-1.278,0.711-3.064,1.932-5.194,3.681
				c-2.112,1.773-4.579,4.063-7.245,6.866c-2.656,2.812-5.594,6.052-8.632,9.74c-3.051,3.676-6.303,7.708-9.594,12.097
				c-3.332,4.353-6.769,9.01-10.205,13.913c-3.479,4.871-6.998,9.962-10.445,15.218c-3.47,5.24-6.938,10.602-10.219,16.067
				c-1.644,2.729-3.242,5.483-4.786,8.246c-1.558,2.754-3.056,5.522-4.442,8.3c-1.375,2.774-2.67,5.572-3.646,8.33
				c-0.928,2.64-1.437,5.605-1.916,8.519c-0.917,5.853-1.448,11.639-1.935,17.113c-0.499,5.48-0.874,10.68-1.185,15.482
				c-0.667,9.606-1.1,17.63-1.42,23.247C508.279,376.417,508.098,379.629,508.098,379.629z"/>
		</g>
		<g>
			<path fill="#515151" d="M468.097,379.629c0,0-0.178-3.142-0.489-8.641c-0.159-2.746-0.352-6.082-0.573-9.908
				c-0.215-3.824-0.478-8.137-0.813-12.835c-0.3-4.699-0.663-9.786-1.137-15.15c-0.477-5.359-0.979-11.018-1.818-16.768
				c-0.417-2.861-0.931-5.79-1.669-8.486c-0.1-0.316-0.198-0.674-0.298-0.958l-0.38-1.068c-0.246-0.647-0.511-1.312-0.803-1.997
				c-0.58-1.354-1.211-2.71-1.881-4.062c-2.705-5.404-5.907-10.745-9.189-16.027c-3.307-5.274-6.812-10.439-10.352-15.458
				c-3.506-5.045-7.08-9.928-10.634-14.577c-3.499-4.693-6.996-9.142-10.396-13.286c-3.352-4.187-6.656-8.028-9.76-11.519
				c-3.088-3.507-6.06-6.584-8.747-9.247c-2.693-2.659-5.175-4.823-7.29-6.501c-2.129-1.657-3.903-2.815-5.165-3.498
				c-0.635-0.327-1.126-0.579-1.468-0.714c-0.339-0.147-0.515-0.224-0.515-0.224l0.302-0.97c0,0,0.196,0.053,0.576,0.156
				c0.386,0.093,0.936,0.28,1.656,0.531c1.431,0.518,3.453,1.461,5.849,2.934c2.408,1.453,5.17,3.448,8.184,5.901
				c3.033,2.436,6.244,5.411,9.668,8.725c3.394,3.344,6.921,7.105,10.554,11.164c3.592,4.094,7.26,8.51,10.951,13.16
				c3.637,4.692,7.29,9.619,10.879,14.716c3.552,5.125,7.018,10.431,10.323,15.854c3.313,5.419,6.416,10.979,9.068,16.737
				c0.66,1.443,1.286,2.902,1.868,4.386c0.287,0.735,0.566,1.501,0.835,2.289l0.352,1.096c0.138,0.438,0.23,0.816,0.346,1.227
				c0.795,3.178,1.128,6.198,1.45,9.18c0.59,5.953,0.897,11.669,1.074,17.094c0.161,5.424,0.23,10.545,0.253,15.271
				c-0.009,4.727-0.061,9.057-0.125,12.893c-0.109,3.836-0.205,7.18-0.283,9.934C468.244,376.483,468.097,379.629,468.097,379.629z"
				/>
		</g>
	</g>
</g>
<g>
	<g>
		<g>
			<path fill="#FDEE21" d="M389.236,408.097c0,0,0.754-0.363,2.279-0.922c1.529-0.537,3.817-1.326,6.866-2.082
				c6.081-1.599,15.132-3.327,26.716-4.855c11.581-1.57,25.679-3.147,41.893-4.562c8.111-0.63,16.749-1.256,25.871-1.709
				c9.123-0.396,18.726-0.801,28.776-0.833c10.063-0.009,20.518,0.485,31.512,1.781c2.759,0.351,5.548,0.711,8.478,1.334
				c1.479,0.315,2.966,0.648,4.7,1.301c0.887,0.37,1.805,0.687,3.149,1.766c0.338,0.289,0.706,0.637,1.096,1.164
				c0.382,0.518,0.784,1.234,0.998,2.138c0.102,0.552,0.167,0.704,0.14,1.622c0.031-0.222-0.057,0.802-0.221,1.267
				c-0.265,0.869-0.634,1.449-0.956,1.894c-0.649,0.852-1.191,1.277-1.67,1.651c-0.481,0.365-0.912,0.638-1.324,0.881
				c-0.82,0.479-1.573,0.846-2.312,1.18c-1.472,0.662-2.883,1.191-4.292,1.688c-2.816,0.974-5.592,1.848-8.394,2.67
				c-11.186,3.249-22.652,5.934-34.448,8.347c-11.777,2.456-23.805,4.861-36.035,7.244c-12.225,2.408-24.637,4.874-37.128,7.575
				c-6.236,1.386-12.493,2.829-18.725,4.396c-6.207,1.598-12.509,3.147-18.321,5.572c-1.449,0.587-2.868,1.214-4.192,1.878
				c-1.297,0.658-2.602,1.388-3.348,1.997c-0.177,0.139-0.315,0.268-0.343,0.311c-0.034,0.032,0.063,0.012,0.294-0.438
				c0.106-0.223,0.234-0.581,0.276-1.048c0.017-0.409,0.011-0.485,0.006-0.546c-0.052-0.508-0.121-0.685-0.193-0.91
				c-0.344-0.901-0.742-1.162-0.808-1.241c-0.178-0.124,0.272,0.143,0.776,0.294c0.522,0.177,1.171,0.345,1.848,0.494
				c2.763,0.597,5.954,0.931,9.116,1.188c3.184,0.251,6.426,0.411,9.685,0.528c13.054,0.439,26.332,0.327,39.606,0.242
				c13.285-0.089,26.601-0.224,39.909-0.167c13.319,0.048,26.586,0.332,39.982,1.206c3.354,0.232,6.723,0.506,10.135,0.926
				c3.419,0.446,6.853,0.986,10.511,1.974c1.835,0.533,3.718,1.145,5.846,2.233c1.066,0.57,2.208,1.255,3.456,2.381
				c0.619,0.564,1.271,1.262,1.882,2.164c0.606,0.89,1.165,2.026,1.485,3.298c0.157,0.634,0.262,1.294,0.292,1.942
				c0.021,0.328,0.016,0.644,0.006,0.963c-0.077,1.031-0.041,0.458-0.067,0.767c-0.008,0.062-0.015,0.173-0.097,0.643
				c-0.066,0.367-0.148,0.733-0.246,1.092c-0.171,0.554-0.343,1.047-0.554,1.506c-0.845,1.846-1.928,3.103-2.918,4.076
				c-2.009,1.903-3.856,2.953-5.617,3.883c-3.52,1.79-6.813,2.907-10.083,3.922c-3.263,0.994-6.476,1.814-9.666,2.553
				c-6.381,1.467-12.667,2.644-18.9,3.673c-24.9,4.071-48.901,6.488-71.423,9.557c-5.621,0.771-11.146,1.576-16.509,2.508
				c-2.68,0.466-5.319,0.966-7.882,1.524c-2.551,0.562-5.063,1.185-7.278,1.934c-1.092,0.365-2.143,0.794-2.809,1.165
				c-0.323,0.167-0.539,0.36-0.42,0.229c0.018-0.028,0.105-0.118,0.156-0.215c0.099-0.138,0.161-0.27,0.274-0.525
				c0.072-0.206,0.188-0.551,0.209-0.867c0.024-0.171,0.029-0.346,0.014-0.517c-0.09-0.915,0.057,0.115-0.137-0.935
				c-0.219-0.69-0.249-0.671-0.384-0.93c-0.073-0.139-0.183-0.287-0.242-0.362c-0.128-0.164-0.208-0.23-0.237-0.255
				c-0.066-0.048,0.001,0.03,0.125,0.12c0.237,0.188,0.666,0.45,1.112,0.696c0.915,0.503,1.996,0.998,3.093,1.465
				c4.453,1.881,9.267,3.356,13.922,4.826c4.686,1.438,9.341,2.718,13.915,3.885c4.572,1.18,9.065,2.259,13.466,3.212
				c8.792,1.933,17.217,3.497,25.156,4.248c3.957,0.381,7.828,0.487,11.388,0.123c1.747-0.195,3.511-0.557,4.657-1.252
				c1.109-0.824,2.113-2.117,2.364-3.424c0.297-1.312-0.046-2.679-0.809-3.816c-0.758-1.142-1.85-2.078-3.062-2.712
				c-2.441-1.299-5.206-1.441-7.543-0.808c-0.592,0.155-1.155,0.381-1.702,0.625c-0.092,0.057-0.63,0.316-0.773,0.429
				c-0.169,0.135-0.346,0.222-0.534,0.409c-0.764,0.638-1.234,1.474-1.485,2.404c-0.26,0.928-0.27,1.952-0.087,2.945
				c0.161,0.997,0.483,1.975,0.926,2.871c0.872,1.806,2.081,3.349,3.385,4.57c1.285,1.25,2.649,2.21,3.93,2.984
				c2.57,1.564,4.838,2.31,6.352,2.823c0.761,0.263,1.357,0.391,1.752,0.512c0.397,0.113,0.6,0.171,0.6,0.171
				s-0.21-0.001-0.622-0.004c-0.414,0-1.032-0.009-1.847-0.086c-0.818-0.051-1.833-0.178-3.022-0.442
				c-1.194-0.244-2.575-0.618-4.078-1.238c-1.508-0.611-3.136-1.482-4.768-2.719c-1.615-1.247-3.257-2.863-4.54-5.041
				c-1.242-2.148-2.257-4.988-1.546-8.217c0.334-1.591,1.237-3.189,2.567-4.351c0.303-0.3,0.718-0.579,1.116-0.85
				c0.435-0.277,0.538-0.316,1.065-0.601c0.745-0.332,1.521-0.63,2.338-0.842c3.263-0.887,7.069-0.418,10.205,1.541
				c1.565,0.969,2.998,2.292,4.014,4.015c1.007,1.706,1.502,3.93,1.02,6.057c-0.491,2.141-1.751,3.904-3.494,5.306
				c-1.934,1.312-3.917,1.723-5.884,2.106c-3.947,0.688-7.959,0.716-12.088,0.729c-4.128-0.019-8.363-0.25-12.711-0.575
				c-4.347-0.331-8.808-0.765-13.366-1.35c-9.121-1.169-18.645-2.772-28.547-5.018c-2.479-0.557-4.979-1.172-7.5-1.883
				c-2.527-0.707-5.075-1.469-7.698-2.413c-1.317-0.481-2.643-0.993-4.064-1.672c-0.719-0.35-1.445-0.717-2.293-1.272
				c-0.421-0.277-0.878-0.602-1.423-1.102c-0.269-0.25-0.573-0.56-0.902-0.984c-0.161-0.205-0.354-0.497-0.516-0.773
				c-0.204-0.409-0.322-0.532-0.58-1.384c-0.323-1.259-0.234-1.714-0.19-2.431c0.076-0.639,0.247-1.317,0.465-1.821
				c0.224-0.569,0.471-0.978,0.742-1.398c0.25-0.36,0.532-0.722,0.782-0.986c1.031-1.097,1.922-1.665,2.745-2.173
				c1.642-0.968,3.084-1.547,4.52-2.09c2.852-1.052,5.597-1.798,8.363-2.494c2.759-0.685,5.52-1.288,8.294-1.854
				c5.549-1.127,11.155-2.107,16.832-3.051c11.351-1.879,22.981-3.593,34.823-5.412c11.838-1.808,23.91-3.641,36.008-5.906
				c6.041-1.144,12.105-2.343,18.042-3.815c2.966-0.733,5.9-1.534,8.722-2.442c2.803-0.903,5.562-1.942,7.742-3.108
				c1.072-0.559,1.987-1.222,2.298-1.554c0.155-0.15,0.088-0.179-0.091,0.197c-0.036,0.096-0.096,0.199-0.134,0.373
				c-0.052,0.163-0.089,0.332-0.109,0.503c-0.028,0.275-0.012,0.187-0.001,0.048c-0.007,0.107,0.057-0.666-0.007,0.165
				c-0.009,0.118-0.002,0.231,0.001,0.358c0.016,0.245,0.049,0.507,0.113,0.748c0.119,0.49,0.331,0.885,0.481,1.109
				c0.159,0.233,0.267,0.327,0.286,0.35c0.05,0.04-0.187-0.145-0.549-0.331c-0.743-0.407-1.937-0.866-3.21-1.246
				c-2.578-0.808-5.562-1.423-8.586-1.936c-3.036-0.525-6.165-0.958-9.328-1.313c-3.167-0.342-6.371-0.624-9.594-0.869
				c-3.225-0.221-6.47-0.4-9.728-0.556c-6.516-0.31-13.08-0.52-19.67-0.682c-13.182-0.323-26.462-0.451-39.773-0.637
				c-13.318-0.214-26.645-0.395-40.059-1.145c-3.357-0.197-6.721-0.437-10.119-0.781c-3.412-0.363-6.799-0.76-10.467-1.629
				c-0.926-0.229-1.87-0.487-2.9-0.861c-1.039-0.407-2.128-0.791-3.608-1.929c-0.708-0.586-1.685-1.478-2.312-3.157
				c-0.143-0.419-0.26-0.797-0.339-1.508c-0.032-0.264-0.042-0.547-0.009-1.161c0.074-0.876,0.321-1.634,0.598-2.23
				c0.573-1.2,1.202-1.865,1.747-2.413c0.554-0.538,1.059-0.924,1.546-1.268c1.934-1.297,3.608-1.996,5.303-2.666
				c1.68-0.65,3.325-1.19,4.957-1.703c6.541-1.922,12.836-3.787,19.185-5.441c6.334-1.655,12.645-3.17,18.92-4.625
				c12.537-2.966,24.936-5.696,37.122-8.371c12.173-2.645,24.143-5.245,35.858-7.79c5.832-1.292,11.601-2.57,17.3-3.833
				c5.681-1.272,11.294-2.497,16.715-3.9c2.703-0.703,5.378-1.423,7.89-2.284c1.252-0.424,2.477-0.872,3.561-1.346
				c0.539-0.234,1.043-0.479,1.429-0.698c0.189-0.107,0.346-0.21,0.42-0.264c0.075-0.044,0.062-0.081-0.168,0.217
				c-0.118,0.165-0.312,0.439-0.476,0.977c-0.112,0.299-0.175,1.15-0.138,0.756c-0.023,0.744,0.021,0.724,0.086,1.106
				c0.133,0.565,0.372,0.97,0.548,1.21c0.187,0.247,0.305,0.352,0.379,0.417c0.271,0.199-0.094-0.05-0.487-0.174
				c-0.848-0.312-2.045-0.603-3.241-0.828c-2.434-0.432-5.033-0.733-7.621-0.931c-5.194-0.396-10.408-0.55-15.526-0.646
				c-5.137-0.093-10.177-0.183-15.114-0.271c-9.896-0.203-19.41-0.366-28.462-0.327c-9.054-0.014-17.65,0.007-25.729,0.146
				c-16.163,0.133-30.257,0.591-41.841,1.24c-11.581,0.688-20.665,1.406-26.844,2.082
				C392.491,407.326,389.236,408.097,389.236,408.097z"/>
		</g>
		<g>
			<path fill="#FDEE21" d="M414.361,386.083c0,0-2.326-3.043-6.552-8.85c-2.129-2.893-4.687-6.508-7.682-10.77
				c-1.488-2.138-3.087-4.436-4.793-6.888c-1.667-2.479-3.438-5.112-5.309-7.896c-7.473-11.148-16.183-24.938-25.585-41.149
				c-9.266-16.279-19.283-34.973-28.53-56.25c-4.646-10.626-9.149-21.877-13.137-33.807c-4.019-11.916-7.534-24.51-10.143-37.761
				c-2.565-13.244-4.031-27.241-3.311-41.636c0.387-7.188,1.219-14.47,2.857-21.692c1.574-7.227,3.879-14.397,6.962-21.292
				c6.142-13.81,15.696-26.306,27.523-36.022c5.896-4.884,12.301-9.155,19.038-12.809c3.367-1.831,6.817-3.512,10.328-5.055
				c1.744-0.802,3.531-1.497,5.302-2.237c1.795-0.673,3.575-1.399,5.393-2.015c7.213-2.634,14.614-4.767,22.113-6.492
				c7.498-1.728,15.071-3.199,22.709-4.269c15.26-2.191,30.748-3.183,46.122-3.481c7.766-0.157,15.46-0.087,23.208,0.126
				c7.734,0.251,15.473,0.717,23.198,1.457c15.435,1.51,30.862,4.203,45.749,9.047c7.432,2.422,14.735,5.359,21.69,9.018
				c3.489,1.803,6.903,3.766,10.206,5.908c3.283,2.169,6.479,4.473,9.527,6.963c12.285,9.869,22.017,22.734,28.351,36.653
				c3.164,6.968,5.529,14.176,7.199,21.415c1.641,7.246,2.65,14.514,3.084,21.692c0.865,14.372-0.354,28.323-2.559,41.589
				c-4.47,26.579-12.95,50.47-21.974,71.764c-4.523,10.659-9.307,20.657-14.128,30.009c-4.813,9.357-9.642,18.081-14.338,26.178
				c-9.477,16.149-18.388,29.804-26.037,40.817c-7.638,11.022-13.953,19.447-18.335,25.129c-4.376,5.686-6.765,8.671-6.765,8.671
				s2.16-3.157,6.096-9.146c3.911-6.005,9.636-14.816,16.532-26.254c6.885-11.44,15.019-25.465,23.503-41.967
				c4.263-8.236,8.621-17.087,12.923-26.537c2.151-4.726,4.284-9.602,6.383-14.625c2.116-5.014,4.203-10.174,6.221-15.481
				c4.032-10.613,7.832-21.807,11.084-33.543c3.235-11.733,6.055-23.991,7.77-36.697c1.73-12.689,2.409-25.838,1.267-39
				c-0.537-6.581-1.603-13.146-3.207-19.599c-1.634-6.443-3.864-12.755-6.755-18.78c-2.907-6.015-6.493-11.723-10.716-16.984
				c-2.105-2.636-4.393-5.141-6.815-7.528c-2.41-2.399-4.953-4.691-7.628-6.852c-2.676-2.162-5.499-4.173-8.413-6.076
				c-2.892-1.939-5.898-3.748-9.006-5.42c-3.095-1.695-6.297-3.232-9.55-4.711c-3.249-1.486-6.577-2.853-9.97-4.101
				c-13.549-5.066-27.988-8.576-42.744-10.908c-7.38-1.181-14.85-2.043-22.363-2.632c-7.502-0.626-15.097-0.909-22.616-1.022
				c-15.192-0.205-30.299,0.379-45.242,2.139c-14.918,1.753-29.642,4.806-43.534,9.759c-13.835,5.006-26.864,12.02-37.444,21.52
				c-5.287,4.733-9.893,10.094-13.738,15.856c-3.833,5.775-6.856,11.979-9.124,18.377c-4.593,12.81-6.089,26.3-6.105,39.47
				c0.059,13.203,1.573,26.186,3.805,38.755c4.461,25.186,12.286,48.516,20.339,69.677c2.045,5.287,4.137,10.436,6.251,15.444
				c1.075,2.498,2.137,4.966,3.187,7.405c1.063,2.437,2.113,4.843,3.149,7.219c4.208,9.481,8.426,18.392,12.535,26.7
				c8.103,16.684,15.756,30.971,22.084,42.735c3.219,5.858,6.093,11.088,8.594,15.638c2.542,4.534,4.703,8.392,6.456,11.519
				C412.48,382.749,414.361,386.083,414.361,386.083z"/>
		</g>
	</g>
	<g>
		<g>
			<path fill="#FDEE21" d="M377.25,200.713c0,0,0.141,0.07,0.413,0.206c0.259,0.146,0.678,0.383,1.134,0.507
				c0.893,0.332,2.362,0.712,3.94,0.558c1.597-0.144,3.317-0.769,5.192-2.035c1.875-1.259,3.89-3.181,5.972-5.572
				c0.54-0.556,1.033-1.245,1.564-1.886c0.263-0.326,0.528-0.655,0.796-0.988c0.251-0.356,0.504-0.716,0.759-1.079
				c0.512-0.74,1.026-1.43,1.561-2.24c0.526-0.81,1.061-1.633,1.603-2.466c2.145-3.371,4.42-6.931,6.611-10.664
				c1.09-1.868,2.195-3.76,3.241-5.674c1.036-1.904,2.045-3.875,2.779-5.686c0.175-0.446,0.339-0.875,0.454-1.237
				c0.122-0.349,0.168-0.688,0.157-0.55c0.019,0.112-0.083,0.36,0.261,1.283c0.042,0.091,0.099,0.219,0.179,0.373
				c0.076,0.141,0.163,0.277,0.258,0.404c0.205,0.3,0.49,0.592,0.793,0.834c0.311,0.254,0.678,0.445,0.969,0.572l0.24,0.089
				c0.422,0.092-0.601-0.097,1.01,0.217l-0.109-0.012l-0.109-0.012l-0.055-0.006c0.049,0.009,0.213,0.03,0.318,0.036
				c0.477,0.034,0.987-0.033,1.433-0.187l0.36-0.133c0.073-0.03,0.146-0.063,0.215-0.1c0.122-0.056,0.316-0.207,0.341-0.213
				c0.058-0.036,0.113-0.077,0.164-0.122c0.057-0.053,0.098-0.099,0.098-0.091c0.018-0.004,0.055-0.068,0.036-0.04
				c-0.165,0.169-0.702,1.076-1.089,1.944c-0.413,0.9-0.829,1.889-1.218,2.906c-1.551,4.101-2.813,8.558-3.901,12.88
				c-0.266,1.083-0.514,2.164-0.735,3.226l-0.151,0.748l-0.138,0.787c-0.077,0.448-0.156,1.017-0.229,1.526
				c-0.295,2.1-0.478,4.21-0.514,6.175c-0.002,0.961,0.008,1.934,0.113,2.721c0.016,0.217,0.045,0.398,0.08,0.559
				c0.034,0.153,0.05,0.383,0.091,0.465c0.033,0.092,0.061,0.271,0.078,0.301c0.007,0.006,0.008,0.015,0.005,0.027
				c-0.009-0.008,0.003,0.08-0.043-0.024c-0.038-0.063-0.09-0.118-0.152-0.159l-0.048-0.029l-0.025-0.012
				c0.333,0.255-0.488-0.364-0.382-0.286l0.162,0.116c0.089,0.062,0.257,0.188,0.281,0.197c-0.121-0.108-0.268-0.194-0.421-0.245
				c-0.067-0.025-0.176-0.044-0.211-0.051c-0.008-0.006-0.017-0.01-0.025-0.012c-0.018-0.003-0.038,0.001-0.056,0.015
				c0.033-0.008,0.063,0.009,0.132,0.017c0.337,0.01,1.062-0.163,1.775-0.46c1.457-0.569,3.013-1.515,4.447-2.488
				c1.457-0.975,2.831-2.042,4.152-3.082c2.634-2.098,4.978-4.191,7.025-6.097c2.055-1.904,3.8-3.645,5.206-5.129
				c1.405-1.484,2.497-2.7,3.221-3.558c0.737-0.863,1.131-1.323,1.131-1.323s-0.098,0.601-0.375,1.717
				c-0.292,1.108-0.802,2.72-1.668,4.687c-0.873,1.959-2.075,4.289-3.727,6.787c-1.656,2.495-3.736,5.173-6.346,7.837
				c-1.299,1.34-2.749,2.653-4.367,3.942c-1.65,1.265-3.395,2.534-5.65,3.613c-1.132,0.53-2.376,1.051-4.117,1.266
				c-0.945,0.064-1.788,0.148-3.261-0.322c-0.4-0.144-0.794-0.322-1.162-0.523l-0.384-0.235l-0.168-0.105
				c0.075,0.063-0.761-0.587-0.452-0.355l-0.09-0.087l-0.178-0.179c-0.235-0.242-0.462-0.499-0.674-0.763
				c-0.244-0.289-0.313-0.466-0.459-0.702l-0.37-0.682c-0.222-0.449-0.323-0.797-0.479-1.208c-0.162-0.419-0.212-0.73-0.314-1.1
				c-0.097-0.364-0.174-0.714-0.224-1.037c-0.262-1.358-0.345-2.585-0.423-3.833c-0.111-2.461-0.047-4.852,0.136-7.282
				c0.046-0.623,0.098-1.188,0.182-1.875l0.116-0.915l0.146-0.951c0.192-1.203,0.409-2.391,0.641-3.577
				c0.934-4.747,2.118-9.431,3.761-14.218c0.421-1.2,0.869-2.41,1.436-3.655c0.602-1.266,1.126-2.489,2.441-4.154
				c0.162-0.204,0.418-0.467,0.633-0.688c0.096-0.104,0.25-0.243,0.424-0.385c0.165-0.137,0.335-0.27,0.507-0.397
				c0.132-0.11,0.471-0.306,0.718-0.438l0.41-0.203c0.161-0.068,0.203-0.105,0.562-0.219c0.588-0.186,1.241-0.286,1.861-0.285
				c0.141-0.001,0.34,0.008,0.425,0.014l0.055,0.005l0.109,0.011l0.109,0.011c1.647,0.315,0.656,0.148,1.113,0.252l0.342,0.13
				c0.434,0.169,0.917,0.452,1.349,0.789c0.421,0.327,0.797,0.74,1.097,1.148c0.132,0.191,0.256,0.39,0.369,0.594
				c0.121,0.215,0.211,0.409,0.273,0.57c0.561,1.47,0.48,2.318,0.473,3.011c-0.095,1.306-0.334,2.108-0.556,2.873
				c-0.23,0.752-0.475,1.414-0.736,2.045c-1.041,2.486-2.176,4.606-3.331,6.694c-1.155,2.075-2.335,4.06-3.543,5.975
				c-2.413,3.827-4.793,7.449-7.172,10.815c-0.6,0.843-1.191,1.675-1.774,2.494c-0.585,0.812-1.259,1.658-1.87,2.462
				c-0.313,0.404-0.622,0.805-0.929,1.203c-0.336,0.386-0.669,0.768-1,1.146c-0.68,0.746-1.263,1.518-2.006,2.188
				c-2.726,2.789-5.849,5.03-9.199,6.218c-3.326,1.227-6.828,1.167-9.275,0.201c-1.234-0.451-2.21-1.096-2.957-1.714
				c-0.739-0.646-1.256-1.238-1.658-1.803c-0.42-0.556-0.568-0.953-0.7-1.225c-0.121-0.279-0.184-0.423-0.184-0.423L377.25,200.713z
				"/>
		</g>
		<g>
			<path fill="#FDEE21" d="M459.703,173.909c0,0-0.315-0.079-0.925-0.231c-0.334-0.099-0.597-0.102-0.979-0.186
				c-0.36-0.068-0.849-0.124-1.357-0.179c-2.053-0.211-5.14-0.16-8.544,1.393c-3.384,1.489-7.048,4.658-9.31,9.586
				c-0.559,1.227-1.024,2.553-1.375,3.962c-0.102,0.348-0.159,0.712-0.241,1.071l-0.058,0.271l-0.015,0.068
				c0.021-0.116-0.001,0.013,0,0.008l-0.026,0.158l-0.048,0.304l-0.021,0.192c-0.069,0.581-0.086,1.271-0.041,1.911
				c0.083,1.298,0.427,2.591,0.991,3.539c0.572,0.967,1.249,1.519,2.164,1.817c0.467,0.145,1.018,0.229,1.653,0.223
				c0.174-0.002-0.176,0.006-0.103,0.002l0.093-0.004l0.186-0.01l0.372-0.019c0.135-0.023,0.163-0.044,0.252-0.048
				c0.258-0.054,0.549-0.132,0.837-0.229c1.17-0.412,2.492-1.311,3.748-2.497c2.534-2.39,4.824-5.763,6.802-9.402
				c0.496-0.914,0.973-1.851,1.43-2.805c0.463-0.958,0.866-1.893,1.373-3.011c0.968-2.131,1.975-4.237,3.002-6.354
				c2.045-4.234,4.2-8.489,6.375-12.803c2.161-4.315,4.354-8.702,6.367-13.127c0.987-2.19,1.982-4.474,2.628-6.489
				c0.153-0.48,0.274-0.97,0.306-1.191c0.026-0.065-0.029-0.176,0.037,0.387c0.075,0.291,0.105,0.902,0.961,1.855
				c0.208,0.214,0.471,0.433,0.755,0.601c-0.301-0.006,1.464,0.578,1.143,0.47c-0.233,0.109,2.053,0.129,1.928-0.015
				c0.391-0.107,0.611-0.211,0.757-0.284c0.608-0.337,0.587-0.402,0.655-0.443c0.037-0.039-0.005,0.007-0.038,0.046
				c-0.085,0.098-0.221,0.274-0.356,0.466c-0.277,0.391-0.581,0.857-0.881,1.338c-1.208,1.955-2.365,4.154-3.459,6.364
				c-1.096,2.221-2.137,4.495-3.126,6.797c-1.976,4.606-3.754,9.33-5.234,14.102c-1.496,4.764-2.603,9.617-3.3,14.331
				c-0.336,2.351-0.618,4.681-0.57,6.888c0.025,2.202,0.379,4.286,1.278,5.855c0.224,0.394,0.491,0.748,0.79,1.071l0.114,0.121
				c0.133,0.106-0.121-0.079-0.057-0.03l0.091,0.077l0.184,0.153l0.084,0.07l0.011,0.004c0.028,0.01-0.015,0.024,0.061,0.062
				c0.065,0.033,0.121,0.08,0.193,0.115c0.569,0.286,1.534,0.385,2.553,0.246c2.067-0.268,4.297-1.181,6.32-2.343
				c4.105-2.356,7.435-5.927,10.339-9.437c1.466-1.754,2.829-3.535,4.062-5.3c1.211-1.77,2.223-3.616,2.783-5.324
				c0.274-0.846,0.414-1.644,0.419-2.271c-0.011-0.628-0.141-1.014-0.313-1.271c-0.104-0.128-0.183-0.263-0.356-0.391l-0.027-0.026
				c0.063,0.053-0.177-0.156,0.134,0.111l-0.168-0.13l-0.154-0.117c0.024,0.031,0.053,0.06,0.084,0.084
				c0.028,0.024,0.069,0.047,0.094,0.061l-0.005,0.009c0.004-0.001-0.002,0.001-0.013,0.005c-0.045,0.002-0.421-0.048-0.956,0.118
				c-1.083,0.294-2.428,1.207-3.433,2.339c-1.029,1.143-1.805,2.522-2.283,3.967c-0.068,0.178-0.108,0.366-0.166,0.547l-0.041,0.136
				c0.04-0.142-0.002,0.015,0.001,0.008l-0.024,0.094l-0.099,0.376c-0.081,0.289-0.086,0.389-0.132,0.58
				c-0.038,0.156-0.071,0.379-0.108,0.574c-0.138,0.803-0.218,1.619-0.244,2.43c-0.046,1.621,0.108,3.22,0.446,4.682
				c0.343,1.462,0.882,2.785,1.564,3.843c0.669,1.07,1.467,1.867,2.354,2.416c0.441,0.28,0.919,0.485,1.425,0.643l0.188,0.062
				c0.056,0.015-0.346-0.075-0.138-0.028l0.079,0.017l0.156,0.034l0.624,0.139c0.091,0.019,0.235,0.059,0.281,0.06l0.15,0.013
				c0.1,0.011,0.198,0.026,0.298,0.045c1.037,0.126,2.222,0.018,3.364-0.279c2.322-0.586,4.582-1.896,6.663-3.2
				c2.078-1.346,3.976-2.793,5.708-4.131c3.443-2.716,6.242-5.007,8.266-6.469c2.021-1.479,3.242-2.116,3.242-2.117l0.158,0.154
				c0,0-0.598,1.187-1.72,3.413c-1.16,2.188-2.879,5.397-5.768,9.146c-1.45,1.871-3.203,3.872-5.464,5.832
				c-2.267,1.942-5.049,3.9-8.788,5.127c-1.871,0.603-3.955,0.989-6.262,0.879l-0.955-0.08l-0.479-0.05
				c-0.165-0.018-0.226-0.035-0.344-0.053l-0.629-0.11l-0.158-0.029l-0.079-0.014l-0.293-0.066l-0.431-0.116
				c-1.147-0.31-2.303-0.761-3.385-1.377c-2.179-1.217-4.039-3.021-5.402-5.052c-1.351-2.051-2.242-4.303-2.803-6.607
				c-0.568-2.308-0.771-4.688-0.647-7.096c0.06-1.204,0.199-2.417,0.43-3.633c0.063-0.31,0.111-0.594,0.197-0.939
				c0.075-0.311,0.167-0.718,0.232-0.928l0.105-0.375l0.08-0.273l0.079-0.235c0.108-0.313,0.203-0.629,0.33-0.937
				c0.943-2.482,2.39-4.831,4.338-6.817c1.97-1.96,4.357-3.674,7.607-4.458c1.61-0.364,3.571-0.486,5.649,0.293
				c0.257,0.094,0.511,0.205,0.762,0.339l0.375,0.197c0.145,0.085,0.304,0.187,0.451,0.286l0.44,0.313l0.177,0.147l0.162,0.137
				c0.364,0.312,0.173,0.157,0.286,0.259l0.123,0.124c0.667,0.634,1.25,1.442,1.722,2.292c0.944,1.744,1.229,3.692,1.136,5.365
				c-0.103,1.678-0.501,3.162-1.004,4.512c-1.032,2.683-2.461,4.926-4.02,7.019c-1.553,2.096-3.34,3.962-5.271,5.662
				c-1.946,1.685-4.037,3.198-6.2,4.609c-2.157,1.421-4.384,2.746-6.692,4.014c-2.33,1.24-4.726,2.46-7.632,3.109
				c-1.449,0.3-3.094,0.491-4.947-0.011c-0.453-0.136-0.909-0.291-1.474-0.608l-0.308-0.176l-0.204-0.124l-0.102-0.062
				c-0.003,0.005-0.315-0.234-0.243-0.179l-0.249-0.188c-0.661-0.507-1.258-1.096-1.792-1.723c-2.156-2.547-3.144-5.592-3.686-8.449
				c-0.513-2.891-0.59-5.728-0.391-8.493c0.196-2.766,0.662-5.458,1.244-8.097c0.579-2.641,1.269-5.234,2.033-7.793
				c1.533-5.118,3.354-10.101,5.389-14.979c1.019-2.438,2.094-4.849,3.241-7.235c1.158-2.391,2.35-4.735,3.791-7.126
				c0.366-0.602,0.75-1.206,1.211-1.848c0.233-0.324,0.48-0.654,0.807-1.039c0.175-0.2,0.342-0.393,0.609-0.65
				c0.297-0.258,0.516-0.536,1.405-1.021c0.216-0.11,0.509-0.246,0.977-0.372c-0.051-0.169,2.318-0.153,2.162-0.033
				c-0.241-0.098,1.593,0.526,1.362,0.557c0.348,0.214,0.677,0.478,0.938,0.751c1.079,1.182,1.203,2.114,1.334,2.712
				c0.163,1.19,0.039,1.717-0.022,2.275c-0.166,1.028-0.387,1.758-0.609,2.48c-0.91,2.784-1.959,5.096-3.018,7.451
				c-2.13,4.648-4.357,9.071-6.547,13.416c-2.193,4.311-4.351,8.549-6.462,12.698c-1.042,2.063-2.058,4.104-3.007,6.109
				c-0.45,0.95-0.962,2.087-1.497,3.148c-0.532,1.067-1.087,2.115-1.666,3.145c-2.338,4.102-4.954,7.986-8.552,11.306
				c-1.811,1.633-3.917,3.162-6.574,4.073c-0.67,0.22-1.35,0.395-2.076,0.522c-0.406,0.058-0.872,0.114-1.23,0.14l-0.938,0.026
				c-1.342-0.021-2.752-0.233-4.121-0.713c-1.369-0.473-2.667-1.251-3.742-2.201c-1.067-0.96-1.919-2.075-2.537-3.218
				c-1.25-2.3-1.718-4.643-1.822-6.861c-0.046-1.124,0-2.185,0.161-3.309l0.067-0.447l0.061-0.329l0.078-0.395l0.08-0.352
				c0.111-0.467,0.2-0.934,0.335-1.39c0.486-1.832,1.127-3.576,1.899-5.204c3.059-6.57,8.414-10.968,13.431-12.726
				c2.51-0.905,4.903-1.236,6.954-1.239c2.057-0.014,3.776,0.307,5.117,0.654c0.676,0.192,1.237,0.361,1.761,0.556
				c0.5,0.19,0.996,0.369,1.243,0.503c0.567,0.272,0.86,0.413,0.86,0.413L459.703,173.909z"/>
		</g>
		<g>
			<path fill="#FDEE21" d="M540.377,172.212c0,0-0.29,0.048-0.847,0.115c-0.577,0.061-1.238,0.188-2.221,0.351
				c-1.907,0.345-4.588,0.934-7.54,2.333c-2.961,1.332-6.184,3.825-8.385,7.777c-1.095,1.983-1.947,4.223-2.365,6.873
				c-0.157,1.074-0.198,2.259-0.011,3.292c0.17,1.043,0.593,1.869,1.17,2.551c0.604,0.658,1.447,1.169,2.515,1.437
				c1.063,0.261,2.309,0.266,3.529-0.029c1.219-0.294,2.412-0.867,3.381-1.698c0.49-0.409,0.935-0.875,1.301-1.403
				c0.202-0.252,0.353-0.541,0.521-0.818c0.19-0.332,0.365-0.702,0.564-1.112c1.543-3.271,3.025-6.913,4.434-10.573
				c0.7-1.838,1.385-3.707,1.998-5.567c0.301-0.926,0.596-1.863,0.822-2.713c0.108-0.399,0.203-0.871,0.213-0.967
				c0.005-0.002-0.008,0,0.014,0.254c0.018,0.107,0.027,0.335,0.203,0.779c0.153,0.412,0.801,1.609,2.358,1.961
				c1.462,0.155,0.135,0.042,0.799,0.077c0.409,0.031,1.172-0.247,1.216-0.285c0.137-0.057,0.323-0.173,0.396-0.222
				c0.073-0.048,0.145-0.101,0.211-0.158c0.168-0.139,0.215-0.217,0.213-0.21c0.007-0.014-0.081,0.102-0.161,0.234
				c-0.085,0.136-0.182,0.311-0.277,0.487c-0.192,0.366-0.388,0.777-0.575,1.203c-0.378,0.854-0.73,1.769-1.06,2.7
				c-0.656,1.867-1.221,3.813-1.672,5.773c-0.448,1.959-0.788,3.949-0.924,5.875c-0.064,0.958-0.079,1.904-0.011,2.777
				c0.036,0.435,0.09,0.852,0.155,1.234c0.074,0.42,0.134,0.611,0.323,1.223c0.205,0.616,0.536,1.327,0.861,1.736
				c0.335,0.44,0.729,0.756,1.389,1.022c0.652,0.262,1.548,0.406,2.525,0.483c0.291,0.074,0.951-0.088,1.67-0.53
				c1.445-0.885,2.991-2.388,4.215-4.076c1.232-1.709,2.326-3.572,3.374-5.466c2.065-3.814,3.829-7.836,5.481-11.882
				c1.671-4.04,3.228-8.12,4.682-12.2c1.45-4.081,2.789-8.168,3.983-12.225c0.596-2.027,1.155-4.049,1.648-6.046
				c0.246-0.998,0.474-1.99,0.668-2.96c0.188-0.947,0.359-1.97,0.388-2.65c0.011-0.133-0.017-0.313,0.008-0.093
				c0.006,0.043,0.015,0.086,0.026,0.128c0.018,0.074,0.046,0.172,0.079,0.254c0.038,0.104,0.13,0.308,0.221,0.441
				c0.175,0.268,0.304,0.44,0.678,0.74c0.456,0.332,1.354,0.613,0.877,0.448c-0.181-0.056,0.245,0.096,0.598,0.108
				c0.429,0.008,0.439-0.009,0.639-0.038c0.182-0.04,0.242-0.054,0.358-0.094c0.364-0.131,0.477-0.245,0.52-0.265
				c0.053-0.042,0.041-0.029,0.024-0.012c-0.045,0.05-0.145,0.173-0.246,0.313c-0.425,0.585-0.905,1.422-1.339,2.248
				c-0.881,1.681-1.685,3.479-2.438,5.271c-1.511,3.595-2.808,7.23-4.005,10.78c-2.349,7.115-4.216,13.98-5.326,20.301
				c-0.565,3.15-0.935,6.18-0.963,8.931c-0.018,1.372,0.073,2.668,0.255,3.805c0.182,1.129,0.516,2.09,0.87,2.619
				c0.085,0.137,0.171,0.24,0.251,0.327c0.021,0.021,0.039,0.046,0.06,0.062l0.028,0.028l0.015,0.014
				c0.092,0.076-0.113-0.088-0.071-0.055l0.389,0.306l0.184,0.144l0.101,0.061l0.196,0.133c0.188,0.096,0.356,0.22,0.552,0.299
				c0.747,0.368,1.567,0.59,2.429,0.68c1.725,0.199,3.521-0.115,5.15-0.494c3.281-0.79,6.013-1.813,7.924-2.473
				c0.977-0.344,1.725-0.608,2.229-0.786c0.517-0.18,0.799-0.263,0.799-0.264l1.211,1.465c0,0-0.559,1.106-2.096,2.77
				c-1.551,1.622-4.103,3.87-8.291,5.342c-2.091,0.709-4.62,1.199-7.58,0.945c-1.472-0.129-3.057-0.497-4.6-1.218
				c-0.391-0.165-0.76-0.391-1.142-0.596l-0.616-0.398l-0.308-0.208l-0.205-0.154l-0.394-0.299l-0.165-0.135l-0.079-0.068
				l-0.156-0.138c-0.106-0.092-0.201-0.188-0.299-0.285c-0.388-0.388-0.733-0.804-1.025-1.23c-1.177-1.722-1.689-3.495-2.024-5.188
				c-0.323-1.7-0.414-3.373-0.415-5.041c0.012-3.333,0.409-6.675,0.992-10.093c1.228-6.819,3.213-13.932,5.816-21.277
				c1.296-3.676,2.773-7.395,4.465-11.16c0.855-1.884,1.756-3.772,2.829-5.692c0.55-0.968,1.102-1.919,1.918-2.988
				c0.212-0.271,0.438-0.55,0.756-0.871c0.168-0.166,0.343-0.333,0.602-0.533c0.243-0.183,0.581-0.434,1.188-0.657
				c0.178-0.058,0.298-0.102,0.545-0.146c0.264-0.036,0.338-0.073,0.831-0.056c0.418,0.016,0.909,0.167,0.789,0.136
				c-0.412-0.151,0.546,0.155,1.053,0.529c0.431,0.333,0.591,0.566,0.809,0.882c0.118,0.191,0.244,0.452,0.305,0.617
				c0.052,0.144,0.103,0.303,0.137,0.44l0.065,0.319c0.105,0.734,0.063,1.078,0.049,1.465c-0.114,1.401-0.354,2.438-0.594,3.548
				c-0.245,1.085-0.516,2.144-0.801,3.195c-0.572,2.102-1.2,4.178-1.863,6.253c-1.328,4.147-2.793,8.286-4.372,12.42
				c-1.578,4.135-3.283,8.26-5.161,12.339c-1.905,4.068-3.968,8.09-6.272,12.026c-1.146,1.974-2.383,3.907-3.756,5.799
				c-1.398,1.878-2.699,3.874-4.871,5.574c-1.081,0.814-2.515,1.668-4.456,1.747c-1.229,0.06-2.561,0.074-4.035-0.258
				c-0.734-0.161-1.494-0.438-2.23-0.806c-0.719-0.4-1.432-0.879-2.006-1.463c-0.601-0.57-1.078-1.201-1.498-1.841
				c-0.183-0.326-0.369-0.638-0.538-0.982c-0.157-0.341-0.341-0.744-0.461-1.044c-0.17-0.422-0.479-1.264-0.614-1.918
				c-0.164-0.685-0.264-1.351-0.328-2.001c-0.131-1.299-0.131-2.535-0.077-3.742c0.119-2.408,0.469-4.694,0.927-6.927
				c0.464-2.232,1.044-4.403,1.745-6.547c0.354-1.073,0.735-2.137,1.184-3.216c0.226-0.541,0.467-1.084,0.749-1.651
				c0.307-0.584,0.564-1.127,1.196-1.946c0.158-0.199,0.386-0.466,0.75-0.776c0.118-0.097,0.241-0.188,0.367-0.275
				c0.126-0.088,0.373-0.229,0.566-0.318c0.099-0.072,0.93-0.356,1.399-0.347c0.727,0.024-0.532-0.087,0.992,0.076
				c1.69,0.381,2.42,1.696,2.623,2.226c0.221,0.565,0.255,0.921,0.283,1.158c0.047,0.514,0.021,0.776,0.006,1.032
				c-0.088,0.938-0.229,1.479-0.365,2.083c-0.276,1.155-0.591,2.185-0.922,3.207c-0.66,2.033-1.362,3.977-2.082,5.894
				c-1.456,3.836-2.912,7.484-4.61,11.137c-0.216,0.451-0.447,0.944-0.722,1.439c-0.31,0.542-0.614,1.083-0.988,1.581
				c-0.709,1.019-1.557,1.929-2.484,2.716c-1.852,1.588-4.03,2.669-6.294,3.25c-2.269,0.573-4.652,0.64-6.971,0.108
				c-1.158-0.265-2.291-0.712-3.355-1.292c-1.066-0.59-2.03-1.372-2.877-2.246c-1.66-1.795-2.687-4.032-3.075-6.132
				c-0.413-2.108-0.36-4.083-0.091-6.013c0.503-3.365,1.692-6.628,3.309-9.333c1.609-2.735,3.677-4.962,5.842-6.659
				c2.188-1.676,4.455-2.865,6.606-3.572c2.151-0.721,4.169-0.958,5.889-0.954c1.724-0.008,3.159,0.237,4.286,0.503
				c1.099,0.281,2.025,0.611,2.512,0.842c0.506,0.242,0.765,0.38,0.765,0.38L540.377,172.212z"/>
		</g>
		<circle fill="#FDEE21" cx="418.771" cy="142.495" r="6.333"/>
	</g>
	<g>
		<g>
			<path fill="#FDEE21" d="M500,372.667c0,0-0.184-3.213-0.409-8.841c-0.205-5.629-0.406-13.672-0.398-23.334
				c0.03-4.831,0.103-10.065,0.283-15.61c0.213-5.547,0.519-11.388,1.194-17.482c0.364-3.042,0.742-6.176,1.783-9.427
				c1.005-3.121,2.271-6.066,3.615-9.002c1.354-2.925,2.807-5.812,4.315-8.676c1.531-2.852,3.13-5.674,4.762-8.473
				c3.274-5.591,6.673-11.1,10.18-16.414c3.531-5.298,7.102-10.446,10.688-15.336c3.629-4.859,7.218-9.497,10.761-13.789
				c3.573-4.266,7.038-8.235,10.394-11.763c3.378-3.505,6.549-6.66,9.563-9.252c2.99-2.614,5.747-4.744,8.16-6.307
				c2.402-1.581,4.449-2.596,5.905-3.152c0.733-0.27,1.294-0.468,1.689-0.565c0.389-0.108,0.589-0.164,0.589-0.164l0.303,0.97
				c0,0-0.179,0.078-0.524,0.229c-0.348,0.137-0.847,0.398-1.489,0.74c-1.278,0.711-3.064,1.932-5.194,3.681
				c-2.112,1.773-4.579,4.063-7.246,6.866c-2.655,2.812-5.593,6.052-8.631,9.74c-3.052,3.675-6.304,7.708-9.595,12.096
				c-3.332,4.354-6.769,9.01-10.204,13.913c-3.48,4.871-6.998,9.962-10.446,15.218c-3.469,5.24-6.938,10.602-10.219,16.067
				c-1.644,2.73-3.242,5.483-4.786,8.246c-1.558,2.755-3.056,5.523-4.442,8.3c-1.375,2.774-2.669,5.573-3.646,8.33
				c-0.928,2.641-1.436,5.606-1.916,8.52c-0.917,5.852-1.447,11.638-1.934,17.113c-0.499,5.48-0.875,10.68-1.186,15.482
				c-0.666,9.606-1.1,17.63-1.42,23.247C500.182,369.455,500,372.667,500,372.667z"/>
		</g>
		<g>
			<path fill="#FDEE21" d="M460,372.667c0,0-0.178-3.142-0.488-8.641c-0.159-2.747-0.352-6.082-0.573-9.908
				c-0.215-3.824-0.478-8.137-0.813-12.835c-0.3-4.699-0.663-9.787-1.137-15.15c-0.477-5.359-0.979-11.018-1.818-16.768
				c-0.417-2.861-0.931-5.791-1.669-8.486c-0.101-0.316-0.198-0.674-0.298-0.958l-0.38-1.068c-0.246-0.647-0.511-1.313-0.803-1.997
				c-0.58-1.354-1.211-2.71-1.881-4.062c-2.705-5.404-5.907-10.745-9.189-16.028c-3.307-5.274-6.812-10.439-10.352-15.458
				c-3.506-5.045-7.08-9.928-10.634-14.577c-3.499-4.692-6.996-9.142-10.396-13.286c-3.352-4.187-6.656-8.027-9.76-11.519
				c-3.088-3.507-6.06-6.584-8.747-9.247c-2.693-2.659-5.175-4.823-7.29-6.501c-2.129-1.657-3.903-2.815-5.165-3.498
				c-0.635-0.327-1.126-0.579-1.468-0.714c-0.339-0.147-0.515-0.224-0.515-0.224l0.302-0.97c0,0,0.196,0.053,0.576,0.156
				c0.386,0.093,0.936,0.28,1.656,0.531c1.431,0.518,3.453,1.461,5.849,2.934c2.408,1.453,5.17,3.448,8.184,5.901
				c3.033,2.436,6.244,5.411,9.668,8.725c3.394,3.344,6.921,7.104,10.553,11.164c3.592,4.094,7.261,8.51,10.951,13.16
				c3.637,4.691,7.29,9.619,10.879,14.716c3.551,5.125,7.018,10.431,10.323,15.853c3.313,5.419,6.416,10.98,9.068,16.738
				c0.66,1.442,1.286,2.902,1.868,4.386c0.287,0.735,0.566,1.5,0.835,2.288l0.352,1.097c0.138,0.438,0.23,0.816,0.346,1.227
				c0.795,3.177,1.128,6.197,1.45,9.18c0.59,5.953,0.897,11.668,1.074,17.094c0.161,5.423,0.23,10.545,0.252,15.271
				c-0.009,4.727-0.061,9.056-0.125,12.893c-0.109,3.836-0.205,7.18-0.283,9.934C460.146,369.521,460,372.667,460,372.667z"/>
		</g>
	</g>
</g>
</svg>
